# xmcd
#
# Track frame offsets: 
#        150
#        19280
#        38786
#        58615
#        75333
#        90489
#        107285
#        121245
#        145008
#        162209
#        178244
#
# Disc length: 2567 seconds
#
# Revision: 1
# Processed by: cddbd v1.5.2PL0 Copyright (c) Steve Scherf et al.
# Submitted via: ExactAudioCopy v0.99pb4
#
DISCID=7e0a050b
DTITLE=Suzana - Suzana Da Gamara
DYEAR=1900
DGENRE=Jazz
TTITLE0=No Ordinary Love
TTITLE1=Catastrophe
TTITLE2=Forever and Tonight
TTITLE3=My Heart
TTITLE4=Spend the Night Together
TTITLE5=Cha Cha
TTITLE6=Meu Amor
TTITLE7=Searching Deep Down
TTITLE8=How Could I
TTITLE9=Raise It Up
TTITLE10=Donnez L'Amour
EXTD=
EXTT0=
EXTT1=
EXTT2=
EXTT3=
EXTT4=
EXTT5=
EXTT6=
EXTT7=
EXTT8=
EXTT9=
EXTT10=
PLAYORDER=
